<svg width="247" height="60" viewBox="0 0 247 60" fill="none" xmlns="http://www.w3.org/2000/svg">
<circle cx="30" cy="30" r="28.5" stroke="url(#paint0_linear_24_2)" stroke-width="3"/>
<mask id="mask0_24_2" style="mask-type:alpha" maskUnits="userSpaceOnUse" x="8" y="19" width="45" height="22">
<line x1="9.5" y1="27.5" x2="9.5" y2="31.5" stroke="black" stroke-width="3" stroke-linecap="round"/>
<line x1="45.5" y1="27.5" x2="45.5" y2="31.5" stroke="black" stroke-width="3" stroke-linecap="round"/>
<line x1="15.5" y1="27.5" x2="15.5" y2="31.5" stroke="black" stroke-width="3" stroke-linecap="round"/>
<line x1="51.5" y1="27.5" x2="51.5" y2="31.5" stroke="black" stroke-width="3" stroke-linecap="round"/>
<line x1="21.5" y1="24.5" x2="21.5" y2="35.5" stroke="black" stroke-width="3" stroke-linecap="round"/>
<line x1="39.5" y1="24.5" x2="39.5" y2="35.5" stroke="black" stroke-width="3" stroke-linecap="round"/>
<line x1="27.5" y1="20.5" x2="27.5" y2="39.5" stroke="black" stroke-width="3" stroke-linecap="round"/>
<line x1="33.5" y1="20.5" x2="33.5" y2="39.5" stroke="black" stroke-width="3" stroke-linecap="round"/>
</mask>
<g mask="url(#mask0_24_2)">
<rect x="8" y="18" width="49" height="26" fill="url(#paint1_linear_24_2)"/>
</g>
<path d="M80.064 40.21C78.684 40.21 77.444 39.97 76.344 39.49C75.264 38.99 74.414 38.31 73.794 37.45C73.174 36.57 72.854 35.56 72.834 34.42H75.744C75.844 35.4 76.244 36.23 76.944 36.91C77.664 37.57 78.704 37.9 80.064 37.9C81.364 37.9 82.384 37.58 83.124 36.94C83.884 36.28 84.264 35.44 84.264 34.42C84.264 33.62 84.044 32.97 83.604 32.47C83.164 31.97 82.614 31.59 81.954 31.33C81.294 31.07 80.404 30.79 79.284 30.49C77.904 30.13 76.794 29.77 75.954 29.41C75.134 29.05 74.424 28.49 73.824 27.73C73.244 26.95 72.954 25.91 72.954 24.61C72.954 23.47 73.244 22.46 73.824 21.58C74.404 20.7 75.214 20.02 76.254 19.54C77.314 19.06 78.524 18.82 79.884 18.82C81.844 18.82 83.444 19.31 84.684 20.29C85.944 21.27 86.654 22.57 86.814 24.19H83.814C83.714 23.39 83.294 22.69 82.554 22.09C81.814 21.47 80.834 21.16 79.614 21.16C78.474 21.16 77.544 21.46 76.824 22.06C76.104 22.64 75.744 23.46 75.744 24.52C75.744 25.28 75.954 25.9 76.374 26.38C76.814 26.86 77.344 27.23 77.964 27.49C78.604 27.73 79.494 28.01 80.634 28.33C82.014 28.71 83.124 29.09 83.964 29.47C84.804 29.83 85.524 30.4 86.124 31.18C86.724 31.94 87.024 32.98 87.024 34.3C87.024 35.32 86.754 36.28 86.214 37.18C85.674 38.08 84.874 38.81 83.814 39.37C82.754 39.93 81.504 40.21 80.064 40.21ZM98.2114 40.27C96.6714 40.27 95.2714 39.92 94.0114 39.22C92.7714 38.52 91.7914 37.53 91.0714 36.25C90.3714 34.95 90.0214 33.45 90.0214 31.75C90.0214 30.07 90.3814 28.59 91.1014 27.31C91.8414 26.01 92.8414 25.02 94.1014 24.34C95.3614 23.64 96.7714 23.29 98.3314 23.29C99.8914 23.29 101.301 23.64 102.561 24.34C103.821 25.02 104.811 26 105.531 27.28C106.271 28.56 106.641 30.05 106.641 31.75C106.641 33.45 106.261 34.95 105.501 36.25C104.761 37.53 103.751 38.52 102.471 39.22C101.191 39.92 99.7714 40.27 98.2114 40.27ZM98.2114 37.87C99.1914 37.87 100.111 37.64 100.971 37.18C101.831 36.72 102.521 36.03 103.041 35.11C103.581 34.19 103.851 33.07 103.851 31.75C103.851 30.43 103.591 29.31 103.071 28.39C102.551 27.47 101.871 26.79 101.031 26.35C100.191 25.89 99.2814 25.66 98.3014 25.66C97.3014 25.66 96.3814 25.89 95.5414 26.35C94.7214 26.79 94.0614 27.47 93.5614 28.39C93.0614 29.31 92.8114 30.43 92.8114 31.75C92.8114 33.09 93.0514 34.22 93.5314 35.14C94.0314 36.06 94.6914 36.75 95.5114 37.21C96.3314 37.65 97.2314 37.87 98.2114 37.87ZM124.811 23.56V40H122.081V37.57C121.561 38.41 120.831 39.07 119.891 39.55C118.971 40.01 117.951 40.24 116.831 40.24C115.551 40.24 114.401 39.98 113.381 39.46C112.361 38.92 111.551 38.12 110.951 37.06C110.371 36 110.081 34.71 110.081 33.19V23.56H112.781V32.83C112.781 34.45 113.191 35.7 114.011 36.58C114.831 37.44 115.951 37.87 117.371 37.87C118.831 37.87 119.981 37.42 120.821 36.52C121.661 35.62 122.081 34.31 122.081 32.59V23.56H124.811ZM137.43 23.26C139.43 23.26 141.05 23.87 142.29 25.09C143.53 26.29 144.15 28.03 144.15 30.31V40H141.45V30.7C141.45 29.06 141.04 27.81 140.22 26.95C139.4 26.07 138.28 25.63 136.86 25.63C135.42 25.63 134.27 26.08 133.41 26.98C132.57 27.88 132.15 29.19 132.15 30.91V40H129.42V23.56H132.15V25.9C132.69 25.06 133.42 24.41 134.34 23.95C135.28 23.49 136.31 23.26 137.43 23.26ZM147.59 31.72C147.59 30.04 147.93 28.57 148.61 27.31C149.29 26.03 150.22 25.04 151.4 24.34C152.6 23.64 153.94 23.29 155.42 23.29C156.7 23.29 157.89 23.59 158.99 24.19C160.09 24.77 160.93 25.54 161.51 26.5V17.8H164.27V40H161.51V36.91C160.97 37.89 160.17 38.7 159.11 39.34C158.05 39.96 156.81 40.27 155.39 40.27C153.93 40.27 152.6 39.91 151.4 39.19C150.22 38.47 149.29 37.46 148.61 36.16C147.93 34.86 147.59 33.38 147.59 31.72ZM161.51 31.75C161.51 30.51 161.26 29.43 160.76 28.51C160.26 27.59 159.58 26.89 158.72 26.41C157.88 25.91 156.95 25.66 155.93 25.66C154.91 25.66 153.98 25.9 153.14 26.38C152.3 26.86 151.63 27.56 151.13 28.48C150.63 29.4 150.38 30.48 150.38 31.72C150.38 32.98 150.63 34.08 151.13 35.02C151.63 35.94 152.3 36.65 153.14 37.15C153.98 37.63 154.91 37.87 155.93 37.87C156.95 37.87 157.88 37.63 158.72 37.15C159.58 36.65 160.26 35.94 160.76 35.02C161.26 34.08 161.51 32.99 161.51 31.75ZM190.783 23.56L185.653 40H182.833L178.873 26.95L174.913 40H172.093L166.933 23.56H169.723L173.503 37.36L177.583 23.56H180.373L184.363 37.39L188.083 23.56H190.783ZM192.473 31.72C192.473 30.04 192.813 28.57 193.493 27.31C194.173 26.03 195.103 25.04 196.283 24.34C197.483 23.64 198.813 23.29 200.273 23.29C201.713 23.29 202.963 23.6 204.023 24.22C205.083 24.84 205.873 25.62 206.393 26.56V23.56H209.153V40H206.393V36.94C205.853 37.9 205.043 38.7 203.963 39.34C202.903 39.96 201.663 40.27 200.243 40.27C198.783 40.27 197.463 39.91 196.283 39.19C195.103 38.47 194.173 37.46 193.493 36.16C192.813 34.86 192.473 33.38 192.473 31.72ZM206.393 31.75C206.393 30.51 206.143 29.43 205.643 28.51C205.143 27.59 204.463 26.89 203.603 26.41C202.763 25.91 201.833 25.66 200.813 25.66C199.793 25.66 198.863 25.9 198.023 26.38C197.183 26.86 196.513 27.56 196.013 28.48C195.513 29.4 195.263 30.48 195.263 31.72C195.263 32.98 195.513 34.08 196.013 35.02C196.513 35.94 197.183 36.65 198.023 37.15C198.863 37.63 199.793 37.87 200.813 37.87C201.833 37.87 202.763 37.63 203.603 37.15C204.463 36.65 205.143 35.94 205.643 35.02C206.143 34.08 206.393 32.99 206.393 31.75ZM219.886 37.48L224.986 23.56H227.896L221.446 40H218.266L211.816 23.56H214.756L219.886 37.48ZM245.582 31.15C245.582 31.67 245.552 32.22 245.492 32.8H232.352C232.452 34.42 233.002 35.69 234.002 36.61C235.022 37.51 236.252 37.96 237.692 37.96C238.872 37.96 239.852 37.69 240.632 37.15C241.432 36.59 241.992 35.85 242.312 34.93H245.252C244.812 36.51 243.932 37.8 242.612 38.8C241.292 39.78 239.652 40.27 237.692 40.27C236.132 40.27 234.732 39.92 233.492 39.22C232.272 38.52 231.312 37.53 230.612 36.25C229.912 34.95 229.562 33.45 229.562 31.75C229.562 30.05 229.902 28.56 230.582 27.28C231.262 26 232.212 25.02 233.432 24.34C234.672 23.64 236.092 23.29 237.692 23.29C239.252 23.29 240.632 23.63 241.832 24.31C243.032 24.99 243.952 25.93 244.592 27.13C245.252 28.31 245.582 29.65 245.582 31.15ZM242.762 30.58C242.762 29.54 242.532 28.65 242.072 27.91C241.612 27.15 240.982 26.58 240.182 26.2C239.402 25.8 238.532 25.6 237.572 25.6C236.192 25.6 235.012 26.04 234.032 26.92C233.072 27.8 232.522 29.02 232.382 30.58H242.762Z" fill="white"/>
<defs>
<linearGradient id="paint0_linear_24_2" x1="30" y1="0" x2="30" y2="60" gradientUnits="userSpaceOnUse">
<stop offset="0.00208333" stop-color="#1662A7"/>
<stop offset="1" stop-color="#BC3A80"/>
</linearGradient>
<linearGradient id="paint1_linear_24_2" x1="32.5" y1="18" x2="32.5" y2="44" gradientUnits="userSpaceOnUse">
<stop offset="0.00208333" stop-color="#1662A7"/>
<stop offset="1" stop-color="#BC3A80"/>
</linearGradient>
</defs>
</svg>
